{
  "accessors": [
    {
      "bufferView": 2,
      "componentType": 5126,
      "count": 160,
      "max": [
        0.10121071338653564,
        0.29983717203140259,
        0.2998373806476593
      ],
      "min": [
        -0.089152991771697998,
        -0.29983758926391602,
        -0.29983735084533691
      ],
      "type": "VEC3"
    },
    {
      "bufferView": 2,
      "byteOffset": 1920,
      "componentType": 5126,
      "count": 160,
      "max": [
        1,
        1,
        1
      ],
      "min": [
        -1,
        -1,
        -1
      ],
      "type": "VEC3"
    },
    {
      "bufferView": 1,
      "componentType": 5126,
      "count": 160,
      "max": [
        0.43637511134147644,
        0.10761311650276184
      ],
      "min": [
        0.11582479625940323,
        0.0008252561092376709
      ],
      "type": "VEC2"
    },
    {
      "bufferView": 0,
      "componentType": 5125,
      "count": 468,
      "max": [
        159
      ],
      "min": [
        0
      ],
      "type": "SCALAR"
    },
    {
      "bufferView": 2,
      "byteOffset": 3840,
      "componentType": 5126,
      "count": 160,
      "max": [
        0.0891532301902771,
        0.29983758926391602,
        0.29983735084533691
      ],
      "min": [
        -0.10121047496795654,
        -0.29983723163604736,
        -0.2998373806476593
      ],
      "type": "VEC3"
    },
    {
      "bufferView": 2,
      "byteOffset": 5760,
      "componentType": 5126,
      "count": 160,
      "max": [
        1,
        1,
        1
      ],
      "min": [
        -1,
        -1,
        -1
      ],
      "type": "VEC3"
    },
    {
      "bufferView": 1,
      "byteOffset": 1280,
      "componentType": 5126,
      "count": 160,
      "max": [
        0.43637511134147644,
        0.10761311650276184
      ],
      "min": [
        0.11582479625940323,
        0.0008252561092376709
      ],
      "type": "VEC2"
    },
    {
      "bufferView": 0,
      "byteOffset": 1872,
      "componentType": 5125,
      "count": 468,
      "max": [
        159
      ],
      "min": [
        0
      ],
      "type": "SCALAR"
    },
    {
      "bufferView": 2,
      "byteOffset": 7680,
      "componentType": 5126,
      "count": 160,
      "max": [
        0.10121047496795654,
        0.29983747005462646,
        0.29983735084533691
      ],
      "min": [
        -0.0891532301902771,
        -0.29983735084533691,
        -0.2998373806476593
      ],
      "type": "VEC3"
    },
    {
      "bufferView": 2,
      "byteOffset": 9600,
      "componentType": 5126,
      "count": 160,
      "max": [
        1,
        1,
        1
      ],
      "min": [
        -1,
        -1,
        -1
      ],
      "type": "VEC3"
    },
    {
      "bufferView": 1,
      "byteOffset": 2560,
      "componentType": 5126,
      "count": 160,
      "max": [
        0.43637511134147644,
        0.10761311650276184
      ],
      "min": [
        0.11582479625940323,
        0.0008252561092376709
      ],
      "type": "VEC2"
    },
    {
      "bufferView": 0,
      "byteOffset": 3744,
      "componentType": 5125,
      "count": 468,
      "max": [
        159
      ],
      "min": [
        0
      ],
      "type": "SCALAR"
    },
    {
      "bufferView": 2,
      "byteOffset": 11520,
      "componentType": 5126,
      "count": 2405,
      "max": [
        0.93556666374206543,
        1.7718871831893921,
        1.3620022535324097
      ],
      "min": [
        -0.93556666374206543,
        -1.8451496362686157,
        0.12671889364719391
      ],
      "type": "VEC3"
    },
    {
      "bufferView": 2,
      "byteOffset": 40380,
      "componentType": 5126,
      "count": 2405,
      "max": [
        1,
        1,
        1
      ],
      "min": [
        -1,
        -1,
        -1
      ],
      "type": "VEC3"
    },
    {
      "bufferView": 1,
      "byteOffset": 3840,
      "componentType": 5126,
      "count": 2405,
      "max": [
        0.99822688102722168,
        0.83975517749786377
      ],
      "min": [
        0,
        0
      ],
      "type": "VEC2"
    },
    {
      "bufferView": 0,
      "byteOffset": 5616,
      "componentType": 5125,
      "count": 5904,
      "max": [
        2404
      ],
      "min": [
        0
      ],
      "type": "SCALAR"
    },
    {
      "bufferView": 2,
      "byteOffset": 69240,
      "componentType": 5126,
      "count": 160,
      "max": [
        0.089152991771697998,
        0.29983717203140259,
        0.2998373806476593
      ],
      "min": [
        -0.10121071338653564,
        -0.29983758926391602,
        -0.29983735084533691
      ],
      "type": "VEC3"
    },
    {
      "bufferView": 2,
      "byteOffset": 71160,
      "componentType": 5126,
      "count": 160,
      "max": [
        1,
        1,
        1
      ],
      "min": [
        -1,
        -1,
        -1
      ],
      "type": "VEC3"
    },
    {
      "bufferView": 1,
      "byteOffset": 23080,
      "componentType": 5126,
      "count": 160,
      "max": [
        0.43637511134147644,
        0.10761311650276184
      ],
      "min": [
        0.11582479625940323,
        0.0008252561092376709
      ],
      "type": "VEC2"
    },
    {
      "bufferView": 0,
      "byteOffset": 29232,
      "componentType": 5125,
      "count": 468,
      "max": [
        159
      ],
      "min": [
        0
      ],
      "type": "SCALAR"
    }
  ],
  "asset": {
    "extras": {
      "author": "KITSUNE GRAPHICS (https://sketchfab.com/kitsunegraphics)",
      "license": "CC-BY-4.0 (http://creativecommons.org/licenses/by/4.0/)",
      "source": "https://sketchfab.com/3d-models/vehicle-peugeot-205-527949cddab34ea4b3b334b9a137d1be",
      "title": "Vehicle - Peugeot 205"
    },
    "generator": "Sketchfab-9.14.0",
    "version": "2.0"
  },
  "bufferViews": [
    {
      "buffer": 0,
      "byteLength": 31104,
      "byteOffset": 0,
      "name": "floatBufferViews",
      "target": 34963
    },
    {
      "buffer": 0,
      "byteLength": 24360,
      "byteOffset": 31104,
      "byteStride": 8,
      "name": "floatBufferViews",
      "target": 34962
    },
    {
      "buffer": 0,
      "byteLength": 73080,
      "byteOffset": 55464,
      "byteStride": 12,
      "name": "floatBufferViews",
      "target": 34962
    }
  ],
  "buffers": [
    {
      "byteLength": 128544,
      "uri": "vehicle5.bin"
    }
  ],
  "images": [
    {
      "uri": "textures2/Vehicle_baseColor.png"
    }
  ],
  "materials": [
    {
      "doubleSided": true,
      "name": "Vehicle",
      "pbrMetallicRoughness": {
        "baseColorFactor": [
          1,
          1,
          1,
          1
        ],
        "baseColorTexture": {
          "index": 0,
          "texCoord": 0
        },
        "metallicFactor": 0,
        "roughnessFactor": 0.69999999999999996
      }
    }
  ],
  "meshes": [
    {
      "name": "FLW_Vehicle_0",
      "primitives": [
        {
          "attributes": {
            "NORMAL": 1,
            "POSITION": 0,
            "TEXCOORD_0": 2
          },
          "indices": 3,
          "material": 0,
          "mode": 4
        }
      ]
    },
    {
      "name": "RRW_Vehicle_0",
      "primitives": [
        {
          "attributes": {
            "NORMAL": 5,
            "POSITION": 4,
            "TEXCOORD_0": 6
          },
          "indices": 7,
          "material": 0,
          "mode": 4
        }
      ]
    },
    {
      "name": "RLW_Vehicle_0",
      "primitives": [
        {
          "attributes": {
            "NORMAL": 9,
            "POSITION": 8,
            "TEXCOORD_0": 10
          },
          "indices": 11,
          "material": 0,
          "mode": 4
        }
      ]
    },
    {
      "name": "Body_Vehicle_0",
      "primitives": [
        {
          "attributes": {
            "NORMAL": 13,
            "POSITION": 12,
            "TEXCOORD_0": 14
          },
          "indices": 15,
          "material": 0,
          "mode": 4
        }
      ]
    },
    {
      "name": "FRW_Vehicle_0",
      "primitives": [
        {
          "attributes": {
            "NORMAL": 17,
            "POSITION": 16,
            "TEXCOORD_0": 18
          },
          "indices": 19,
          "material": 0,
          "mode": 4
        }
      ]
    }
  ],
  "nodes": [
    {
      "children": [
        1
      ],
      "name": "RootNode (gltf orientation matrix)",
      "rotation": [
        -0.70710678118654746,
        -0,
        -0,
        0.70710678118654757
      ]
    },
    {
      "children": [
        2
      ],
      "matrix": [
        0.0067236754111945629,
        0,
        0,
        0,
        0,
        0.0067236754111945629,
        0,
        0,
        0,
        0,
        0.0067236754111945629,
        0,
        0,
        0,
        0,
        1
      ],
      "name": "RootNode (model correction matrix)"
    },
    {
      "children": [
        3
      ],
      "matrix": [
        1,
        0,
        0,
        0,
        0,
        0,
        1,
        0,
        0,
        -1,
        0,
        0,
        0,
        0,
        0,
        1
      ],
      "name": "794e23536be740b68c5e283a61a67b92.fbx"
    },
    {
      "children": [
        4,
        6,
        8,
        10,
        12
      ],
      "name": "RootNode"
    },
    {
      "children": [
        5
      ],
      "matrix": [
        86.602539649920686,
        5.5511151231257827e-15,
        50.000001261839131,
        0,
        50.000001261839074,
        -4.3711390063094768e-06,
        -86.602539649920615,
        0,
        2.1855695475636594e-06,
        99.999999999999915,
        -3.7855173884437932e-06,
        0,
        71.109153747558594,
        29.74199104309082,
        123.18848419189453,
        1
      ],
      "name": "FLW"
    },
    {
      "mesh": 0,
      "name": "FLW_Vehicle_0"
    },
    {
      "children": [
        7
      ],
      "matrix": [
        100,
        0,
        0,
        0,
        -0,
        -1.6292067939183141e-05,
        -99.999999999998678,
        0,
        0,
        99.999999999998678,
        -1.6292067939183141e-05,
        0,
        -71.109176635742188,
        29.741992950439453,
        -120.95774078369141,
        1
      ],
      "name": "RRW"
    },
    {
      "mesh": 1,
      "name": "RRW_Vehicle_0"
    },
    {
      "children": [
        9
      ],
      "matrix": [
        100,
        0,
        0,
        0,
        0,
        -1.6292067939183141e-05,
        -99.999999999998678,
        0,
        0,
        99.999999999998678,
        -1.6292067939183141e-05,
        0,
        71.109176635742188,
        29.741992950439453,
        -120.95775604248047,
        1
      ],
      "name": "RLW"
    },
    {
      "mesh": 2,
      "name": "RLW_Vehicle_0"
    },
    {
      "children": [
        11
      ],
      "matrix": [
        100,
        0,
        0,
        0,
        0,
        -1.6292067939183141e-05,
        -99.999999999998678,
        0,
        0,
        99.999999999998678,
        -1.6292067939183141e-05,
        0,
        0,
        1.8483920097351074,
        0,
        1
      ],
      "name": "Body"
    },
    {
      "mesh": 3,
      "name": "Body_Vehicle_0"
    },
    {
      "children": [
        13
      ],
      "matrix": [
        86.602539649920686,
        5.5511151231257827e-15,
        50.000001261839131,
        0,
        50.000001261839074,
        -4.3711390063094768e-06,
        -86.602539649920615,
        0,
        2.1855695475636594e-06,
        99.999999999999915,
        -3.7855173884437932e-06,
        0,
        -71.109153747558594,
        29.74199104309082,
        123.18848419189453,
        1
      ],
      "name": "FRW"
    },
    {
      "mesh": 4,
      "name": "FRW_Vehicle_0"
    }
  ],
  "samplers": [
    {
      "magFilter": 9729,
      "minFilter": 9987,
      "wrapS": 10497,
      "wrapT": 10497
    }
  ],
  "scene": 0,
  "scenes": [
    {
      "name": "OSG_Scene",
      "nodes": [
        0
      ]
    }
  ],
  "textures": [
    {
      "sampler": 0,
      "source": 0
    }
  ]
}

